<?xml version="1.0" standalone="no"?>
<!DOCTYPE svg PUBLIC "-//W3C//DTD SVG 20010904//EN"
 "http://www.w3.org/TR/2001/REC-SVG-20010904/DTD/svg10.dtd">
<svg version="1.0" xmlns="http://www.w3.org/2000/svg"
 width="700.000000pt" height="700.000000pt" viewBox="0 0 700.000000 700.000000"
 preserveAspectRatio="xMidYMid meet">
<metadata>
Created by potrace 1.11, written by Peter Selinger 2001-2013
</metadata>
<g transform="translate(0.000000,700.000000) scale(0.100000,-0.100000)"
fill="#000000" stroke="none">
<path d="M3329 5816 c-2 -2 -38 -7 -79 -11 -41 -4 -84 -9 -95 -11 -11 -2 -32
-6 -48 -9 -140 -26 -350 -89 -457 -137 -105 -47 -227 -112 -301 -159 l-78 -50
-71 31 c-150 66 -334 117 -525 146 -134 20 -436 25 -560 9 -573 -73 -943 -370
-1066 -855 -20 -78 -23 -92 -38 -200 -20 -151 -3 -445 35 -605 8 -33 17 -71
20 -84 10 -50 77 -209 120 -289 81 -147 218 -308 349 -408 53 -41 198 -125
255 -148 25 -10 52 -21 60 -25 8 -4 41 -16 73 -26 l58 -18 -6 -76 c-8 -103 -8
-331 0 -411 36 -369 164 -650 401 -886 228 -228 541 -392 939 -493 87 -22 89
-22 220 -46 51 -10 105 -27 125 -40 157 -100 351 -176 535 -209 17 -3 41 -8
54 -11 74 -15 291 -20 400 -10 273 27 469 92 696 235 17 10 44 21 60 23 210
33 456 101 635 174 432 179 725 448 878 810 32 77 78 236 86 301 3 24 7 46 10
50 15 25 23 359 11 513 l-6 76 70 22 c345 109 640 383 787 732 34 81 77 222
89 289 3 19 8 42 10 50 26 94 26 470 0 605 -50 263 -147 457 -310 618 -188
185 -467 306 -795 344 -159 18 -472 6 -620 -23 -14 -3 -41 -8 -60 -11 -53 -8
-304 -83 -315 -94 -5 -5 -15 -9 -22 -9 -7 0 -38 -12 -69 -26 l-56 -25 -41 28
c-193 131 -528 270 -740 307 -15 3 -53 10 -85 15 -31 6 -75 13 -97 17 -44 6
-430 15 -436 10z"/>
</g>
</svg>
